<svg width="10" height="10" viewBox="0 0 10 10" fill="none" xmlns="http://www.w3.org/2000/svg">
<path fill-rule="evenodd" clip-rule="evenodd" d="M9.19953 3.57306L9.55966 3.93306C9.84476 4.21306 9.99982 4.59306 9.99982 4.99306C10.0048 5.39306 9.84977 5.77356 9.56966 6.05806C9.56633 6.06172 9.563 6.06494 9.55966 6.06816C9.55799 6.06978 9.55633 6.07139 9.55466 6.07306L9.19953 6.42806C9.05948 6.56806 8.97945 6.75806 8.97945 6.95856V7.47306C8.97945 8.30306 8.30421 8.97856 7.47391 8.97856H6.95872C6.75865 8.97856 6.56858 9.05805 6.42853 9.19806L6.0684 9.55805C5.77329 9.85355 5.38815 9.99806 5.00301 9.99806C4.61787 9.99806 4.23273 9.85356 3.93762 9.56356L3.57249 9.19806C3.43244 9.05805 3.24237 8.97856 3.0423 8.97856H2.52711C1.69681 8.97856 1.02157 8.30306 1.02157 7.47306V6.95856C1.02157 6.75806 0.941538 6.56806 0.801487 6.42306L0.441357 6.06806C-0.143855 5.48356 -0.148857 4.52806 0.436355 3.93856L0.801487 3.57306C0.941538 3.43306 1.02157 3.24306 1.02157 3.03806V2.52806C1.02157 1.69806 1.69681 1.02356 2.52711 1.02356H3.0423C3.24237 1.02356 3.43244 0.943055 3.57249 0.803055L3.93262 0.443055C4.51783 -0.146445 5.47318 -0.146445 6.06339 0.438555L6.42853 0.803055C6.56858 0.943055 6.75865 1.02356 6.95872 1.02356H7.47391C8.30421 1.02356 8.97945 1.69806 8.97945 2.52806V3.04356C8.97945 3.24306 9.05948 3.43306 9.19953 3.57306ZM3.71254 6.72305C3.83259 6.72305 3.94263 6.67806 4.02266 6.59306L6.59359 4.02356C6.76365 3.85356 6.76365 3.57306 6.59359 3.40306C6.42353 3.23356 6.14843 3.23356 5.97836 3.40306L3.40743 5.97305C3.23737 6.14305 3.23737 6.42306 3.40743 6.59306C3.48746 6.67806 3.5975 6.72305 3.71254 6.72305ZM5.84832 6.28306C5.84832 6.52806 6.04339 6.72305 6.28848 6.72305C6.52856 6.72305 6.72363 6.52806 6.72363 6.28306C6.72363 6.04356 6.52856 5.84806 6.28848 5.84806C6.04339 5.84806 5.84832 6.04356 5.84832 6.28306ZM3.71754 3.27806C3.95763 3.27806 4.1527 3.47306 4.1527 3.71306C4.1527 3.95856 3.95763 4.15306 3.71754 4.15306C3.47746 4.15306 3.27738 3.95856 3.27738 3.71306C3.27738 3.47306 3.47746 3.27806 3.71754 3.27806Z" fill="#2D776D"/>
</svg>
