<svg width="12" height="12" viewBox="0 0 12 12" fill="none" xmlns="http://www.w3.org/2000/svg">
<path fill-rule="evenodd" clip-rule="evenodd" d="M10.1995 4.57306L10.5597 4.93306C10.8448 5.21306 10.9998 5.59306 10.9998 5.99306C11.0048 6.39306 10.8498 6.77356 10.5697 7.05806C10.5663 7.06172 10.563 7.06494 10.5597 7.06816C10.558 7.06978 10.5563 7.07139 10.5547 7.07306L10.1995 7.42806C10.0595 7.56806 9.97945 7.75806 9.97945 7.95856V8.47306C9.97945 9.30306 9.30421 9.97856 8.47391 9.97856H7.95872C7.75865 9.97856 7.56858 10.0581 7.42853 10.1981L7.0684 10.5581C6.77329 10.8536 6.38815 10.9981 6.00301 10.9981C5.61787 10.9981 5.23273 10.8536 4.93762 10.5636L4.57249 10.1981C4.43244 10.0581 4.24237 9.97856 4.0423 9.97856H3.52711C2.69681 9.97856 2.02157 9.30306 2.02157 8.47306V7.95856C2.02157 7.75806 1.94154 7.56806 1.80149 7.42306L1.44136 7.06806C0.856145 6.48356 0.851143 5.52806 1.43636 4.93856L1.80149 4.57306C1.94154 4.43306 2.02157 4.24306 2.02157 4.03806V3.52806C2.02157 2.69806 2.69681 2.02356 3.52711 2.02356H4.0423C4.24237 2.02356 4.43244 1.94306 4.57249 1.80306L4.93262 1.44306C5.51783 0.853555 6.47318 0.853555 7.06339 1.43856L7.42853 1.80306C7.56858 1.94306 7.75865 2.02356 7.95872 2.02356H8.47391C9.30421 2.02356 9.97945 2.69806 9.97945 3.52806V4.04356C9.97945 4.24306 10.0595 4.43306 10.1995 4.57306ZM4.71254 7.72305C4.83259 7.72305 4.94263 7.67806 5.02266 7.59306L7.59359 5.02356C7.76365 4.85356 7.76365 4.57306 7.59359 4.40306C7.42353 4.23356 7.14843 4.23356 6.97836 4.40306L4.40743 6.97305C4.23737 7.14305 4.23737 7.42306 4.40743 7.59306C4.48746 7.67806 4.5975 7.72305 4.71254 7.72305ZM6.84832 7.28306C6.84832 7.52806 7.04339 7.72305 7.28848 7.72305C7.52856 7.72305 7.72363 7.52806 7.72363 7.28306C7.72363 7.04356 7.52856 6.84806 7.28848 6.84806C7.04339 6.84806 6.84832 7.04356 6.84832 7.28306ZM4.71754 4.27806C4.95763 4.27806 5.1527 4.47306 5.1527 4.71306C5.1527 4.95856 4.95763 5.15306 4.71754 5.15306C4.47746 5.15306 4.27738 4.95856 4.27738 4.71306C4.27738 4.47306 4.47746 4.27806 4.71754 4.27806Z" fill="#2D776D"/>
</svg>
